<?xml version="1.0" standalone="no"?>
<!DOCTYPE svg PUBLIC "-//W3C//DTD SVG 20010904//EN"
 "http://www.w3.org/TR/2001/REC-SVG-20010904/DTD/svg10.dtd">
<svg version="1.0" xmlns="http://www.w3.org/2000/svg"
 width="160.000000pt" height="160.000000pt" viewBox="0 0 160.000000 160.000000"
 preserveAspectRatio="xMidYMid meet">

<g transform="translate(0.000000,160.000000) scale(0.100000,-0.100000)"
fill="#000000" stroke="none">
<path d="M650 1586 c-141 -30 -261 -88 -363 -175 -359 -304 -383 -844 -51
-1175 156 -156 338 -231 564 -231 226 0 408 75 564 231 156 156 231 338 231
564 0 174 -36 298 -124 432 -113 173 -274 288 -481 345 -78 21 -260 26 -340 9z
m360 -408 c118 -58 156 -212 84 -335 -38 -66 -88 -94 -181 -102 l-78 -6 -3
-172 -2 -173 -50 0 -50 0 -2 172 -3 173 -42 3 -43 3 0 -175 0 -176 -55 0 -55
0 0 411 0 411 213 -4 c207 -3 213 -4 267 -30z"/>
<path d="M630 976 l0 -146 50 0 51 0 -3 143 -3 142 -47 3 -48 3 0 -145z"/>
<path d="M830 975 l0 -148 56 6 c95 10 138 54 138 143 0 87 -43 129 -144 141
l-50 6 0 -148z"/>
</g>
</svg>
